<svg version="1.2" xmlns="http://www.w3.org/2000/svg" viewBox="0 0 1000 1000" width="1000" height="1000">
	<style>
		.s0 { fill: #00468f } 
		.s1 { fill: #fcb712 } 
	</style>
	<g id="Layer 1">
		<g id="&lt;Group&gt;">
			<path id="&lt;Path&gt;" class="s0" d="m627.97 165.28l131.87 97.56c4.79 197.62-79.1 410.53-257.87 509.8-178.81-99.29-262.58-312.16-257.86-509.8l131.87-97.56c67.02 63.01 184.97 63.01 251.99 0z"/>
			<path id="&lt;Compound Path&gt;" fill-rule="evenodd" class="s1" d="m773.42 255.69c0 0 21.96 375.85-271.45 532.69-293.4-156.84-271.44-532.69-271.44-532.69l147.02-108.77c0 0 40.54 51.55 124.42 51.55 83.89 0 124.43-51.55 124.43-51.55zm-271.45-30.3c-45.68 0-91.36-14.49-126.68-43.5l-118.33 87.55c-1.58 188.64 75.6 390.68 245.02 488.32 169.42-97.65 246.57-299.64 245.02-488.32l-118.34-87.55c0 0-46.52 43.5-126.69 43.5z"/>
			<path id="&lt;Path&gt;" class="s1" d="m502.12 641.1l3.75 10.84 11.37 0.33-9.1 6.89 3.28 11.08-9.34-6.61-9.4 6.53 3.31-11-9.05-6.97 11.4-0.23z"/>
			<path id="&lt;Path&gt;" class="s1" d="m559.59 647.49l3.76 10.85 11.41 0.26-9.14 6.96 3.34 11.03-9.4-6.58-9.34 6.54 3.26-11.02-9.06-7 11.4-0.19z"/>
			<path id="&lt;Path&gt;" class="s1" d="m444.65 647.48l3.7 10.88 11.4 0.3-9.05 6.89 3.28 11.05-9.4-6.58-9.43 6.51 3.34-10.98-9.05-7 11.43-0.24z"/>
			<path id="&lt;Path&gt;" class="s1" d="m476.11 673.08l3.7 10.88 11.4 0.3-9.06 6.89 3.28 11.05-9.39-6.58-9.43 6.5 3.34-10.97-9.06-7 11.43-0.25z"/>
			<path id="&lt;Path&gt;" class="s1" d="m528.21 673.08l3.69 10.88 11.4 0.3-9.05 6.89 3.28 11.05-9.4-6.58-9.42 6.5 3.33-10.97-9.05-7 11.43-0.25z"/>
			<path id="&lt;Path&gt;" class="s1" d="m502.16 700.44l3.69 10.88 11.4 0.31-9.06 6.89 3.28 11.04-9.4-6.58-9.42 6.51 3.34-10.97-9.04-6.99 11.41-0.25z"/>
			<path id="&lt;Path&gt;" class="s1" d="m502.14 583.74l3.68 10.93 11.46 0.21-9.19 6.96 3.27 11.03-9.26-6.56-9.4 6.54 3.3-11.03-9.11-7.02 11.43-0.17z"/>
			<path id="&lt;Path&gt;" class="s1" d="m447.79 586.69l3.69 10.93 11.46 0.2-9.19 6.96 3.26 11.04-9.25-6.57-9.4 6.54 3.3-11.02-9.12-7.03 11.44-0.17z"/>
			<path id="&lt;Path&gt;" class="s1" d="m556.51 586.69l3.64 10.93 11.48 0.2-9.16 6.96 3.21 11.04-9.23-6.57-9.42 6.54 3.32-11.02-9.12-7.03 11.42-0.17z"/>
			<path id="&lt;Path&gt;" class="s1" d="m393.43 589.64l3.76 10.88 11.37 0.18-9.07 7.05 3.28 11-9.39-6.59-9.33 6.54 3.28-11.02-9.09-6.98 11.43-0.15z"/>
			<path id="&lt;Path&gt;" class="s1" d="m610.84 589.64l3.73 10.88 11.39 0.26-9.16 6.92 3.35 11.05-9.36-6.55-9.4 6.49 3.31-10.96-9.11-7.03 11.49-0.18z"/>
			<path id="&lt;Path&gt;" class="s1" d="m416.19 621.86l3.76 10.84 11.44 0.26-9.13 7.02 3.29 11.01-9.36-6.59-9.39 6.5 3.28-10.94-9.09-7.04 11.46-0.17z"/>
			<path id="&lt;Path&gt;" class="s1" d="m588.06 621.87l3.73 10.88 11.41 0.3-9.12 6.9 3.3 11.04-9.39-6.59-9.42 6.52 3.36-10.97-9.05-7 11.4-0.25z"/>
			<path id="&lt;Path&gt;" class="s1" d="m530.8 614.48l3.71 10.89 11.41 0.3-9.06 6.89 3.28 11.05-9.41-6.59-9.42 6.51 3.33-10.97-9.04-6.99 11.42-0.25z"/>
			<path id="&lt;Path&gt;" class="s1" d="m473.55 614.47l3.69 10.88 11.4 0.26-9.12 7.04 3.3 10.97-9.31-6.6-9.42 6.57 3.32-11-9.1-7 11.44-0.24z"/>
			<path id="&lt;Path&gt;" class="s1" d="m423.57 557.7l3.81 10.84 11.4 0.23-9.11 7.03 3.3 11.02-9.4-6.55-9.35 6.47 3.29-10.98-9.11-7.02 11.43-0.19z"/>
			<path id="&lt;Path&gt;" class="s1" d="m580.66 557.71l3.71 10.86 11.41 0.3-9.11 6.92 3.31 11.01-9.42-6.56-9.39 6.51 3.36-10.96-9.07-6.99 11.4-0.29z"/>
			<path id="&lt;Path&gt;" class="s1" d="m371.25 560.64l3.79 10.9 11.37 0.31-9.07 6.94 3.27 10.98-9.38-6.55-9.43 6.55 3.38-11.05-9.1-6.98 11.4-0.2z"/>
			<path id="&lt;Path&gt;" class="s1" d="m633.04 560.68l3.68 10.81 11.39 0.28-9.1 7 3.3 10.96-9.31-6.56-9.4 6.54 3.3-10.98-9.09-7.05 11.38-0.19z"/>
			<path id="&lt;Path&gt;" class="s1" d="m476.04 551.78l3.66 10.94 11.41 0.27-9.13 7 3.31 10.98-9.35-6.64-9.35 6.61 3.26-11.01-9.09-7.04 11.43-0.19z"/>
			<path id="&lt;Path&gt;" class="s1" d="m528.36 551.81l3.69 10.91 11.38 0.25-9.09 6.98 3.34 10.98-9.42-6.6-9.39 6.6 3.31-11.03-9.06-6.97 11.39-0.25z"/>
			<path id="&lt;Path&gt;" class="s1" d="m654.76 525.3l3.75 10.88 11.47 0.28-9.14 6.99 3.24 11.01-9.32-6.59-9.37 6.57 3.23-11.03-9.02-7.06 11.39-0.17z"/>
			<path id="&lt;Path&gt;" class="s1" d="m349.38 525.3l3.75 10.88 11.47 0.28-9.14 6.99 3.24 11.01-9.32-6.59-9.37 6.57 3.23-11.03-9.03-7.06 11.4-0.17z"/>
			<path id="&lt;Path&gt;" class="s1" d="m603.96 525.32l3.67 10.91 11.41 0.25-9.1 6.98 3.34 10.98-9.42-6.6-9.37 6.6 3.28-11.03-9.02-6.97 11.4-0.25z"/>
			<path id="&lt;Path&gt;" class="s1" d="m400.26 525.29l3.77 10.94 11.47 0.24-9.11 6.97 3.2 11.03-9.33-6.63-9.42 6.57 3.35-10.97-9.08-7.04 11.41-0.21z"/>
			<path id="&lt;Path&gt;" class="s1" d="m451.15 522.35l3.78 10.94 11.46 0.23-9.1 6.97 3.2 11.04-9.34-6.64-9.41 6.58 3.35-10.98-9.08-7.03 11.41-0.21z"/>
			<path id="&lt;Path&gt;" class="s1" d="m553.02 522.38l3.75 10.92 11.36 0.26-9.09 6.97 3.29 10.97-9.37-6.57-9.36 6.56 3.28-10.96-9.02-7.05 11.38-0.24z"/>
			<path id="&lt;Path&gt;" class="s1" d="m502.17 519.43l3.67 10.91 11.41 0.25-9.1 6.98 3.32 10.98-9.4-6.6-9.38 6.6 3.28-11.02-9.02-6.98 11.41-0.24z"/>
			<path id="&lt;Path&gt;" class="s1" d="m620.96 486.2l3.75 10.88 11.47 0.28-9.14 6.99 3.24 11.01-9.32-6.59-9.37 6.56 3.23-11.02-9.02-7.06 11.4-0.17z"/>
			<path id="&lt;Path&gt;" class="s1" d="m668.51 486.2l3.76 10.88 11.47 0.28-9.14 6.99 3.24 11.01-9.33-6.59-9.37 6.56 3.24-11.02-9.02-7.06 11.39-0.17z"/>
			<path id="&lt;Path&gt;" class="s1" d="m335.62 486.2l3.75 10.88 11.47 0.28-9.13 6.99 3.23 11.01-9.32-6.59-9.37 6.56 3.24-11.02-9.03-7.06 11.39-0.17z"/>
			<path id="&lt;Path&gt;" class="s1" d="m573.51 486.22l3.66 10.91 11.41 0.25-9.1 6.98 3.34 10.98-9.42-6.6-9.37 6.6 3.28-11.03-9.02-6.97 11.4-0.25z"/>
			<path id="&lt;Path&gt;" class="s1" d="m383.16 486.19l3.77 10.94 11.47 0.24-9.11 6.97 3.2 11.03-9.33-6.63-9.41 6.57 3.34-10.97-9.07-7.04 11.41-0.21z"/>
			<path id="&lt;Path&gt;" class="s1" d="m430.75 486.21l3.66 10.9 11.5 0.31-9.15 6.95 3.29 10.99-9.34-6.59-9.36 6.59 3.27-11.04-9.01-7.01 11.34-0.2z"/>
			<path id="&lt;Path&gt;" class="s1" d="m525.9 486.22l3.75 10.92 11.36 0.26-9.09 6.97 3.29 10.97-9.37-6.57-9.36 6.56 3.28-10.96-9.02-7.05 11.39-0.24z"/>
			<path id="&lt;Path&gt;" class="s1" d="m478.39 486.22l3.67 10.91 11.41 0.25-9.1 6.98 3.32 10.98-9.4-6.6-9.38 6.6 3.28-11.03-9.02-6.97 11.41-0.25z"/>
			<path id="&lt;Path&gt;" class="s1" d="m388.05 405.49l-29.74-0.05v-13.87l-3.25-3.55-15.81-0.05-3.63 3.5v52.98l3.48 3.39 15.79 0.06 3.42-3.38v-13.11l29.74 0.08v23.67l-17.44 17.98h-47.46l-17.19-18.16v-74.06l17.47-17.41h47.44l17.18 17.41z"/>
			<path id="&lt;Compound Path&gt;" fill-rule="evenodd" class="s1" d="m483.91 363.51v24.81l-5.52-0.03 23.63 59.63h6.35v25.22h-41.41v-25.22h3.58l-1.53-4.8h-28.6l-1.72 4.8h3.43v25.22h-41.28l0.05-25.22h6.45l23.84-59.69-4.65-0.02v-24.7zm-36.11 58.86h13.69l-6.82-17.24z"/>
			<path id="&lt;Compound Path&gt;" fill-rule="evenodd" class="s1" d="m606.02 423.72v31.95l-17.34 17.47h-66.79v-24.9h6.62v-59.83h-6.38l-0.01-24.9h66.77l17.13 18.04v27.79l-7.16 7.2zm-29.6 8.55l-3.63-3.53-14.73-0.01v19.6l14.73 0.03 3.63-3.37zm0-40.27l-3.52-3.48-14.84-0.03v15.81h14.78l3.58-3.52z"/>
			<path id="&lt;Path&gt;" class="s1" d="m693.31 388.84v67l-17.41 17.3h-39.49l-17.15-17.47v-26.44l29.64 0.08-0.01 15.86 3.53 3.36 7.62 0.03 3.63-3.38v-56.49h-9.21v-25.18h45.41v25.31z"/>
			<path id="&lt;Path&gt;" class="s1" d="m459.61 283.84l3.76 10.91 11.44 0.25-9.12 6.98 3.24 11.03-9.36-6.64-9.33 6.54 3.33-10.99-9.13-7 11.46-0.23z"/>
			<path id="&lt;Path&gt;" class="s1" d="m417.45 280.9l3.72 10.88 11.42 0.33-9.18 6.9 3.35 11.05-9.47-6.6-9.31 6.51 3.28-10.99-9.03-7.01 11.43-0.19z"/>
			<path id="&lt;Path&gt;" class="s1" d="m332.99 280.89l3.73 10.85 11.46 0.31-9.09 6.95 3.18 11.08-9.3-6.67-9.37 6.57 3.29-11-9.1-7.02 11.4-0.22z"/>
			<path id="&lt;Path&gt;" class="s1" d="m290.78 280.89l3.72 10.85 11.46 0.31-9.09 6.95 3.19 11.08-9.31-6.67-9.37 6.57 3.29-11-9.1-7.02 11.41-0.22z"/>
			<path id="&lt;Path&gt;" class="s1" d="m375.21 280.93l3.81 10.85 11.35 0.3-9.09 6.98 3.24 10.97-9.35-6.58-9.39 6.58 3.35-11-9.11-7.01 11.44-0.24z"/>
			<path id="&lt;Path&gt;" class="s1" d="m501.82 283.84l3.77 10.91 11.43 0.25-9.12 6.98 3.25 11.03-9.36-6.64-9.34 6.54 3.33-10.99-9.12-7 11.45-0.23z"/>
			<path id="&lt;Path&gt;" class="s1" d="m544.04 283.84l3.76 10.91 11.44 0.25-9.12 6.98 3.24 11.03-9.36-6.64-9.34 6.54 3.34-10.99-9.13-7 11.46-0.23z"/>
			<path id="&lt;Path&gt;" class="s1" d="m586.29 283.77l-3.77 10.91-11.43 0.25 9.12 6.98-3.25 11.04 9.36-6.65 9.34 6.54-3.33-10.99 9.12-7-11.46-0.23z"/>
			<path id="&lt;Path&gt;" class="s1" d="m628.45 280.83l-3.73 10.88-11.42 0.33 9.19 6.9-3.36 11.05 9.47-6.6 9.31 6.52-3.28-11 9.03-7-11.43-0.2z"/>
			<path id="&lt;Path&gt;" class="s1" d="m712.9 280.82l-3.72 10.85-11.46 0.31 9.09 6.95-3.19 11.08 9.31-6.66 9.37 6.57-3.29-11.01 9.1-7.01-11.41-0.23z"/>
			<path id="&lt;Path&gt;" class="s1" d="m670.69 280.86l-3.82 10.85-11.35 0.31 9.09 6.97-3.24 10.97 9.35-6.57 9.39 6.57-3.35-10.99 9.11-7.02-11.44-0.24z"/>
			<path id="&lt;Path&gt;" class="s1" d="m376.66 208.48l3.75 10.88 11.47 0.28-9.13 7 3.23 11.01-9.32-6.6-9.37 6.56 3.23-11.02-9.02-7.05 11.4-0.18z"/>
			<path id="&lt;Path&gt;" class="s1" d="m627.53 208.41l-3.75 10.89-11.47 0.27 9.13 7-3.23 11.01 9.32-6.6 9.37 6.57-3.22-11.03 9.01-7.05-11.39-0.17z"/>
			<path id="&lt;Path&gt;" class="s1" d="m324.36 242.13l3.73 10.88 11.42 0.33-9.15 6.91 3.31 11.04-9.45-6.6-9.33 6.52 3.3-10.99-9.04-7.01 11.43-0.2z"/>
			<path id="&lt;Path&gt;" class="s1" d="m445 246.55l3.75 10.82 11.4 0.31-9.08 7.01 3.29 10.96-9.45-6.6-9.31 6.57 3.33-11.05-9.08-6.98 11.41-0.24z"/>
			<path id="&lt;Path&gt;" class="s1" d="m485.22 247.14l3.75 10.81 11.4 0.32-9.08 7.01 3.29 10.96-9.45-6.6-9.31 6.57 3.33-11.06-9.07-6.97 11.41-0.24z"/>
			<path id="&lt;Path&gt;" class="s1" d="m525.44 247.14l3.75 10.81 11.4 0.32-9.07 7.01 3.29 10.96-9.45-6.6-9.32 6.57 3.33-11.06-9.07-6.97 11.41-0.24z"/>
			<path id="&lt;Path&gt;" class="s1" d="m364.57 243.9l3.81 10.84 11.35 0.3-9.09 6.98 3.24 10.98-9.35-6.58-9.39 6.58 3.35-11-9.11-7.01 11.44-0.25z"/>
			<path id="&lt;Path&gt;" class="s1" d="m404.79 245.66l3.81 10.85 11.35 0.3-9.09 6.98 3.24 10.98-9.35-6.58-9.39 6.57 3.35-10.99-9.11-7.02 11.45-0.24z"/>
			<path id="&lt;Path&gt;" class="s1" d="m686.31 242.13l-3.73 10.88-11.42 0.33 9.15 6.91-3.31 11.04 9.45-6.6 9.33 6.52-3.3-10.99 9.04-7.01-11.44-0.2z"/>
			<path id="&lt;Path&gt;" class="s1" d="m565.67 246.55l-3.75 10.82-11.4 0.31 9.08 7.01-3.29 10.96 9.45-6.6 9.31 6.57-3.33-11.05 9.08-6.98-11.41-0.24z"/>
			<path id="&lt;Path&gt;" class="s1" d="m605.9 245.66l-3.75 10.82-11.4 0.32 9.07 7.01-3.29 10.96 9.45-6.6 9.31 6.57-3.33-11.06 9.08-6.98-11.41-0.23z"/>
			<path id="&lt;Path&gt;" class="s1" d="m646.1 243.9l-3.81 10.84-11.35 0.3 9.09 6.98-3.24 10.98 9.35-6.58 9.39 6.58-3.35-11 9.11-7.01-11.44-0.25z"/>
			<path id="&lt;Path&gt;" class="s1" d="m418.83 318.46l3.77 10.82 11.39 0.32-9.07 7.01 3.28 10.96-9.45-6.59-9.32 6.56 3.33-11.05-9.07-6.98 11.41-0.24z"/>
			<path id="&lt;Path&gt;" class="s1" d="m377.24 318.46l3.79 10.85 11.36 0.3-9.09 6.98 3.24 10.98-9.37-6.58-9.34 6.57 3.31-10.99-9.1-7.02 11.43-0.24z"/>
			<path id="&lt;Path&gt;" class="s1" d="m335.61 318.46l3.79 10.85 11.36 0.3-9.09 6.98 3.24 10.98-9.36-6.58-9.35 6.57 3.31-10.99-9.1-7.02 11.43-0.24z"/>
			<path id="&lt;Path&gt;" class="s1" d="m294.02 318.46l3.74 10.9 11.39 0.3-9.09 6.93 3.21 10.98-9.32-6.55-9.38 6.51 3.34-10.97-9.15-7.02 11.44-0.18z"/>
			<path id="&lt;Path&gt;" class="s1" d="m460.49 318.46l3.8 10.85 11.35 0.3-9.08 6.98 3.23 10.98-9.36-6.58-9.34 6.57 3.31-10.99-9.11-7.02 11.44-0.24z"/>
			<path id="&lt;Path&gt;" class="s1" d="m502.12 318.46l3.8 10.85 11.35 0.3-9.09 6.98 3.24 10.98-9.36-6.58-9.34 6.57 3.31-10.99-9.11-7.02 11.44-0.24z"/>
			<path id="&lt;Path&gt;" class="s1" d="m585.37 318.39l-3.77 10.83-11.39 0.31 9.07 7.01-3.29 10.96 9.45-6.59 9.32 6.56-3.32-11.05 9.06-6.98-11.41-0.24z"/>
			<path id="&lt;Path&gt;" class="s1" d="m626.96 318.39l-3.79 10.85-11.37 0.3 9.1 6.99-3.24 10.97 9.36-6.58 9.35 6.58-3.31-11 9.1-7.01-11.43-0.25z"/>
			<path id="&lt;Path&gt;" class="s1" d="m710.17 318.39l-3.73 10.9-11.4 0.3 9.09 6.94-3.2 10.97 9.32-6.54 9.37 6.5-3.34-10.97 9.15-7.02-11.44-0.18z"/>
			<path id="&lt;Path&gt;" class="s1" d="m668.55 318.39l-3.74 10.9-11.4 0.3 9.09 6.94-3.2 10.97 9.32-6.54 9.38 6.5-3.35-10.97 9.16-7.02-11.45-0.18z"/>
			<path id="&lt;Path&gt;" class="s1" d="m543.7 318.39l-3.79 10.85-11.36 0.3 9.09 6.99-3.23 10.97 9.36-6.58 9.34 6.58-3.32-11 9.11-7.01-11.44-0.25z"/>
		</g>
	</g>
</svg>